# xmcd CD database file generated by Grip 3.2.0
# 
# Track frame offsets:
#       182
#       12937
#       31540
#       46645
#       58590
#       80382
#       97420
#       112535
#       126890
#       141597
# 
# Disc length: 2152 seconds
# 
# Revision: 7
# Processed by: cddbd v1.5.1PL0 Copyright (c) Steve Scherf et al.
# Submitted via: Grip 3.2.0
# 
DISCID=7708660a
DTITLE=The Robert Cray Band - Who's Been Talkin'
DYEAR=1980
DGENRE=Blues
TTITLE0=Too Many Cooks
TTITLE1=The Score
TTITLE2=The Welfare (Turns Its Back On You)
TTITLE3=That's What I'll Do
TTITLE4=I'd Rather Be A Wino
TTITLE5=Who's Been Talkin'
TTITLE6=Sleeping In The Ground
TTITLE7=I'm Gonna Forget About You
TTITLE8=Nice As A Fool Can Be
TTITLE9=If You're Thinkin' What I'm Thinkin'
EXTD=
EXTT0=
EXTT1=
EXTT2=
EXTT3=
EXTT4=
EXTT5=
EXTT6=
EXTT7=
EXTT8=
EXTT9=
PLAYORDER=
